<svg xmlns="http://www.w3.org/2000/svg" width="29" height="29" viewBox="0 0 29 29">
    <path fill="#FFF" fill-rule="evenodd" d="M15.192 3.15a2.627 2.627 0 0 0-2.624 2.624v8.376a2.628 2.628 0 0 0 2.624 2.625 2.63 2.63 0 0 0 2.625-2.625V5.774a2.628 2.628 0 0 0-2.625-2.624m1.164 22.053h4.07a1.115 1.115 0 1 1 0 2.23H10.056a1.115 1.115 0 1 1 0-2.23h4.07V23.49C9.63 23.4 6 19.714 6 15.197v-3.789a1.115 1.115 0 0 1 2.23 0v3.79a6.071 6.071 0 0 0 6.064 6.065h1.795a6.071 6.071 0 0 0 6.065-6.066v-3.789a1.115 1.115 0 0 1 2.23 0v3.79c0 4.483-3.578 8.148-8.028 8.29v1.715zm-1.164-6.2a4.858 4.858 0 0 1-4.854-4.853V5.774A4.858 4.858 0 0 1 15.192.92a4.858 4.858 0 0 1 4.854 4.854v8.376a4.858 4.858 0 0 1-4.854 4.854zM28.364 1.708a1 1 0 0 1 0 1.414l-4.243 4.243a1 1 0 1 1-1.414-1.414l4.243-4.243a1 1 0 0 1 1.414 0zm-22 21a1 1 0 0 1 0 1.414l-4.243 4.243A1 1 0 1 1 .707 26.95l4.243-4.243a1 1 0 0 1 1.414 0z"/>
</svg>
