<?xml version="1.0" encoding="UTF-8"?>
<svg xmlns="http://www.w3.org/2000/svg" xmlns:xlink="http://www.w3.org/1999/xlink" width="450pt" height="449.999984pt" viewBox="0 0 450 449.999984" version="1.2">
<defs>
<clipPath id="clip1">
  <path d="M 43 7.472656 L 373 7.472656 L 373 442.472656 L 43 442.472656 Z M 43 7.472656 "/>
</clipPath>
</defs>
<g id="surface1">
<rect x="0" y="0" width="450" height="449.999984" style="fill:rgb(100%,100%,100%);fill-opacity:1;stroke:none;"/>
<rect x="0" y="0" width="450" height="449.999984" style="fill:rgb(100%,100%,100%);fill-opacity:1;stroke:none;"/>
<rect x="0" y="0" width="450" height="449.999984" style="fill:rgb(100%,100%,100%);fill-opacity:1;stroke:none;"/>
<g clip-path="url(#clip1)" clip-rule="nonzero">
<path style=" stroke:none;fill-rule:nonzero;fill:rgb(94.119263%,17.649841%,22.749329%);fill-opacity:1;" d="M 347.128906 80.199219 L 99.042969 80.199219 C 91.566406 80.199219 80.691406 78.160156 80.691406 63.886719 C 80.691406 53.011719 89.527344 44.175781 100.402344 44.175781 L 352.566406 44.175781 C 363.441406 44.175781 370.917969 36.699219 370.917969 25.824219 C 370.917969 14.949219 363.441406 7.472656 352.566406 7.472656 L 100.402344 7.472656 C 71.175781 7.472656 46.027344 31.261719 43.988281 59.808594 L 43.988281 396.933594 C 43.988281 422.082031 65.738281 442.472656 92.925781 442.472656 L 348.488281 442.472656 C 361.402344 442.472656 372.277344 431.597656 372.277344 418.683594 L 372.277344 103.308594 C 370.917969 91.074219 360.042969 80.199219 347.128906 80.199219 Z M 334.214844 406.449219 L 93.605469 406.449219 C 86.128906 406.449219 80.691406 403.050781 80.691406 397.613281 L 80.691406 112.824219 C 86.128906 114.863281 91.566406 116.222656 99.042969 116.222656 L 334.894531 116.222656 L 334.894531 406.449219 Z M 334.214844 406.449219 "/>
</g>
<path style=" stroke:none;fill-rule:nonzero;fill:rgb(94.119263%,17.649841%,22.749329%);fill-opacity:1;" d="M 153.417969 388.097656 L 262.167969 388.097656 C 273.042969 388.097656 280.519531 380.621094 280.519531 369.746094 C 280.519531 358.871094 273.042969 351.394531 262.167969 351.394531 L 153.417969 351.394531 C 142.542969 351.394531 135.066406 358.871094 135.066406 369.746094 C 135.066406 380.621094 142.542969 388.097656 153.417969 388.097656 Z M 153.417969 388.097656 "/>
<path style=" stroke:none;fill-rule:nonzero;fill:rgb(94.119263%,17.649841%,22.749329%);fill-opacity:1;" d="M 153.417969 224.972656 L 262.167969 224.972656 C 273.042969 224.972656 280.519531 217.496094 280.519531 206.621094 L 280.519531 152.246094 C 280.519531 141.371094 273.042969 133.894531 262.167969 133.894531 L 153.417969 133.894531 C 142.542969 133.894531 135.066406 141.371094 135.066406 152.246094 L 135.066406 206.621094 C 135.066406 217.496094 142.542969 224.972656 153.417969 224.972656 Z M 171.089844 170.597656 L 243.816406 170.597656 L 243.816406 188.949219 L 171.089844 188.949219 Z M 171.089844 170.597656 "/>
</g>
</svg>
