<?xml version="1.0" encoding="UTF-8"?>
<svg xmlns="http://www.w3.org/2000/svg" xmlns:xlink="http://www.w3.org/1999/xlink" width="450pt" height="449.999984pt" viewBox="0 0 450 449.999984" version="1.2">
<defs>
<clipPath id="clip1">
  <path d="M 191 5.832031 L 269 5.832031 L 269 84 L 191 84 Z M 191 5.832031 "/>
</clipPath>
<clipPath id="clip2">
  <path d="M 129.496094 90 L 329.746094 90 L 329.746094 446.082031 L 129.496094 446.082031 Z M 129.496094 90 "/>
</clipPath>
</defs>
<g id="surface1">
<rect x="0" y="0" width="450" height="449.999984" style="fill:rgb(100%,100%,100%);fill-opacity:1;stroke:none;"/>
<rect x="0" y="0" width="450" height="449.999984" style="fill:rgb(100%,100%,100%);fill-opacity:1;stroke:none;"/>
<g clip-path="url(#clip1)" clip-rule="nonzero">
<path style=" stroke:none;fill-rule:nonzero;fill:rgb(94.119263%,17.649841%,22.749329%);fill-opacity:1;" d="M 229.914062 5.835938 C 251.421875 5.835938 268.820312 23.226562 268.820312 44.722656 C 268.820312 66.222656 251.421875 83.613281 229.914062 83.613281 C 208.40625 83.613281 191.011719 66.222656 191.011719 44.722656 C 190.9375 23.226562 208.40625 5.835938 229.914062 5.835938 Z M 229.914062 5.835938 "/>
</g>
<g clip-path="url(#clip2)" clip-rule="nonzero">
<path style=" stroke:none;fill-rule:nonzero;fill:rgb(94.119263%,17.649841%,22.749329%);fill-opacity:1;" d="M 329.011719 226.910156 L 298.183594 131.085938 C 297.960938 130.425781 297.667969 129.835938 297.375 129.25 C 285.117188 98.140625 257.734375 90.875 248.121094 90.875 L 211.269531 90.875 C 201.582031 90.875 174.273438 98.214844 162.015625 129.25 C 161.722656 129.835938 161.429688 130.425781 161.207031 131.085938 L 130.378906 226.910156 C 127.734375 234.910156 132.066406 243.566406 140.140625 246.207031 C 148.140625 248.851562 156.804688 244.519531 159.445312 236.449219 L 189.175781 144.144531 L 196.148438 144.144531 L 145.277344 302.484375 L 186.679688 302.484375 L 186.679688 427.957031 C 186.679688 437.933594 194.753906 446.078125 204.8125 446.078125 C 214.792969 446.078125 222.941406 438.007812 222.941406 427.957031 L 222.941406 302.484375 L 236.449219 302.484375 L 236.449219 427.957031 C 236.449219 437.933594 244.523438 446.078125 254.578125 446.078125 C 264.5625 446.078125 272.710938 438.007812 272.710938 427.957031 L 272.710938 302.484375 L 314.113281 302.484375 L 263.386719 144.144531 L 270.363281 144.144531 L 300.089844 236.449219 C 302.734375 244.449219 311.394531 248.851562 319.398438 246.207031 C 327.324219 243.640625 331.65625 234.910156 329.011719 226.910156 Z M 329.011719 226.910156 "/>
</g>
</g>
</svg>
