<?xml version="1.0" encoding="UTF-8"?>
<svg xmlns="http://www.w3.org/2000/svg" xmlns:xlink="http://www.w3.org/1999/xlink" width="450pt" height="449.999984pt" viewBox="0 0 450 449.999984" version="1.2">
<defs>
<clipPath id="clip1">
  <path d="M 6.949219 20 L 441.199219 20 L 441.199219 439 L 6.949219 439 Z M 6.949219 20 "/>
</clipPath>
</defs>
<g id="surface1">
<rect x="0" y="0" width="450" height="449.999984" style="fill:rgb(100%,100%,100%);fill-opacity:1;stroke:none;"/>
<rect x="0" y="0" width="450" height="449.999984" style="fill:rgb(100%,100%,100%);fill-opacity:1;stroke:none;"/>
<g clip-path="url(#clip1)" clip-rule="nonzero">
<path style=" stroke:none;fill-rule:nonzero;fill:rgb(94.119263%,17.649841%,22.749329%);fill-opacity:1;" d="M 441.199219 313.484375 C 441.199219 273.453125 408.628906 240.882812 368.597656 240.882812 C 328.5625 240.882812 295.996094 273.453125 295.996094 313.484375 C 295.996094 337.234375 317.707031 373.195312 333.992188 400.335938 L 128.402344 400.335938 C 119.582031 400.335938 110.082031 396.941406 103.296875 389.476562 C 94.476562 380.65625 90.40625 367.765625 94.476562 354.875 C 97.867188 340.625 114.152344 327.734375 132.472656 327.734375 L 203.039062 327.734375 C 222.714844 327.734375 241.035156 320.269531 253.925781 306.019531 C 273.605469 286.34375 281.066406 257.167969 270.210938 230.027344 C 261.390625 202.886719 232.214844 183.210938 201.679688 183.210938 L 110.082031 183.210938 C 128.402344 156.070312 151.472656 116.035156 151.472656 92.96875 C 151.472656 52.933594 118.902344 20.367188 78.871094 20.367188 C 38.835938 20.367188 6.949219 52.933594 6.949219 92.96875 C 6.949219 125.535156 48.335938 187.28125 61.230469 204.921875 C 63.265625 212.386719 70.050781 219.171875 79.546875 219.171875 L 201.003906 219.171875 C 217.289062 219.171875 231.535156 227.992188 235.605469 242.917969 C 241.035156 257.167969 237.644531 272.09375 226.785156 280.914062 C 219.324219 288.378906 210.503906 291.773438 201.679688 291.773438 L 129.757812 291.773438 C 93.796875 291.773438 62.585938 315.519531 57.15625 349.445312 C 51.730469 373.195312 59.191406 398.300781 76.835938 416.617188 C 91.082031 430.867188 109.402344 438.332031 127.722656 438.332031 L 368.597656 438.332031 C 376.058594 438.332031 382.84375 432.902344 384.878906 427.476562 C 399.808594 407.796875 441.199219 344.019531 441.199219 313.484375 Z M 79.546875 56.328125 C 99.226562 56.328125 115.511719 72.613281 115.511719 92.289062 C 115.511719 105.179688 99.226562 135.714844 79.546875 164.890625 C 59.871094 135.714844 43.585938 103.144531 43.585938 92.289062 C 42.910156 72.613281 59.191406 56.328125 79.546875 56.328125 Z M 368.597656 277.523438 C 388.273438 277.523438 404.558594 293.808594 404.558594 313.484375 C 404.558594 326.375 388.273438 356.910156 368.597656 386.085938 C 348.917969 356.910156 332.636719 324.339844 332.636719 313.484375 C 332.636719 293.808594 348.917969 277.523438 368.597656 277.523438 Z M 368.597656 277.523438 "/>
</g>
<path style=" stroke:none;fill-rule:nonzero;fill:rgb(94.119263%,17.649841%,22.749329%);fill-opacity:1;" d="M 386.917969 308.054688 C 386.917969 308.65625 386.886719 309.253906 386.828125 309.851562 C 386.769531 310.449219 386.679688 311.042969 386.5625 311.628906 C 386.445312 312.21875 386.300781 312.800781 386.128906 313.375 C 385.953125 313.949219 385.75 314.511719 385.523438 315.066406 C 385.292969 315.621094 385.035156 316.164062 384.753906 316.691406 C 384.46875 317.222656 384.160156 317.734375 383.828125 318.234375 C 383.496094 318.734375 383.136719 319.214844 382.757812 319.679688 C 382.378906 320.140625 381.972656 320.585938 381.550781 321.011719 C 381.125 321.433594 380.683594 321.835938 380.21875 322.21875 C 379.753906 322.597656 379.273438 322.957031 378.773438 323.289062 C 378.273438 323.621094 377.761719 323.929688 377.230469 324.214844 C 376.703125 324.496094 376.160156 324.753906 375.605469 324.980469 C 375.050781 325.210938 374.488281 325.414062 373.914062 325.585938 C 373.339844 325.761719 372.757812 325.90625 372.171875 326.023438 C 371.582031 326.140625 370.988281 326.230469 370.390625 326.289062 C 369.792969 326.347656 369.195312 326.375 368.597656 326.375 C 367.996094 326.375 367.398438 326.347656 366.800781 326.289062 C 366.203125 326.230469 365.609375 326.140625 365.023438 326.023438 C 364.433594 325.90625 363.851562 325.761719 363.277344 325.585938 C 362.703125 325.414062 362.140625 325.210938 361.585938 324.980469 C 361.03125 324.753906 360.488281 324.496094 359.960938 324.214844 C 359.429688 323.929688 358.917969 323.621094 358.417969 323.289062 C 357.917969 322.957031 357.4375 322.597656 356.972656 322.21875 C 356.511719 321.835938 356.066406 321.433594 355.640625 321.011719 C 355.21875 320.585938 354.816406 320.140625 354.433594 319.679688 C 354.054688 319.214844 353.695312 318.734375 353.363281 318.234375 C 353.03125 317.734375 352.722656 317.222656 352.4375 316.691406 C 352.15625 316.164062 351.898438 315.621094 351.671875 315.066406 C 351.441406 314.511719 351.238281 313.949219 351.066406 313.375 C 350.890625 312.800781 350.746094 312.21875 350.628906 311.628906 C 350.511719 311.042969 350.421875 310.449219 350.363281 309.851562 C 350.304688 309.253906 350.277344 308.65625 350.277344 308.054688 C 350.277344 307.457031 350.304688 306.859375 350.363281 306.261719 C 350.421875 305.664062 350.511719 305.070312 350.628906 304.480469 C 350.746094 303.894531 350.890625 303.3125 351.066406 302.738281 C 351.238281 302.164062 351.441406 301.601562 351.671875 301.046875 C 351.898438 300.492188 352.15625 299.949219 352.4375 299.421875 C 352.722656 298.890625 353.03125 298.378906 353.363281 297.878906 C 353.695312 297.378906 354.054688 296.898438 354.433594 296.433594 C 354.816406 295.96875 355.21875 295.527344 355.640625 295.101562 C 356.066406 294.679688 356.511719 294.277344 356.972656 293.894531 C 357.4375 293.515625 357.917969 293.15625 358.417969 292.824219 C 358.917969 292.492188 359.429688 292.183594 359.960938 291.898438 C 360.488281 291.617188 361.03125 291.359375 361.585938 291.132812 C 362.140625 290.902344 362.703125 290.699219 363.277344 290.527344 C 363.851562 290.351562 364.433594 290.207031 365.023438 290.089844 C 365.609375 289.972656 366.203125 289.882812 366.800781 289.824219 C 367.398438 289.765625 367.996094 289.738281 368.597656 289.738281 C 369.195312 289.738281 369.792969 289.765625 370.390625 289.824219 C 370.988281 289.882812 371.582031 289.972656 372.171875 290.089844 C 372.757812 290.207031 373.339844 290.351562 373.914062 290.527344 C 374.488281 290.699219 375.050781 290.902344 375.605469 291.132812 C 376.160156 291.359375 376.703125 291.617188 377.230469 291.898438 C 377.761719 292.183594 378.273438 292.492188 378.773438 292.824219 C 379.273438 293.15625 379.753906 293.515625 380.21875 293.894531 C 380.683594 294.277344 381.125 294.679688 381.550781 295.101562 C 381.972656 295.527344 382.378906 295.96875 382.757812 296.433594 C 383.136719 296.898438 383.496094 297.378906 383.828125 297.878906 C 384.160156 298.378906 384.46875 298.890625 384.753906 299.421875 C 385.035156 299.949219 385.292969 300.492188 385.523438 301.046875 C 385.75 301.601562 385.953125 302.164062 386.128906 302.738281 C 386.300781 303.3125 386.445312 303.894531 386.5625 304.480469 C 386.679688 305.070312 386.769531 305.664062 386.828125 306.261719 C 386.886719 306.859375 386.917969 307.457031 386.917969 308.054688 Z M 386.917969 308.054688 "/>
<path style=" stroke:none;fill-rule:nonzero;fill:rgb(94.119263%,17.649841%,22.749329%);fill-opacity:1;" d="M 97.867188 87.539062 C 97.867188 88.140625 97.839844 88.738281 97.78125 89.335938 C 97.722656 89.933594 97.632812 90.523438 97.515625 91.113281 C 97.398438 91.703125 97.253906 92.28125 97.078125 92.855469 C 96.90625 93.429688 96.703125 93.996094 96.472656 94.550781 C 96.246094 95.105469 95.988281 95.644531 95.707031 96.175781 C 95.421875 96.703125 95.113281 97.21875 94.78125 97.71875 C 94.449219 98.214844 94.089844 98.695312 93.710938 99.160156 C 93.328125 99.625 92.925781 100.070312 92.503906 100.492188 C 92.078125 100.917969 91.632812 101.320312 91.171875 101.699219 C 90.707031 102.082031 90.226562 102.4375 89.726562 102.769531 C 89.226562 103.105469 88.714844 103.414062 88.183594 103.695312 C 87.65625 103.976562 87.113281 104.234375 86.558594 104.464844 C 86.003906 104.695312 85.441406 104.894531 84.867188 105.070312 C 84.292969 105.246094 83.710938 105.390625 83.121094 105.507812 C 82.535156 105.625 81.941406 105.710938 81.34375 105.769531 C 80.746094 105.828125 80.148438 105.859375 79.546875 105.859375 C 78.949219 105.859375 78.351562 105.828125 77.753906 105.769531 C 77.15625 105.710938 76.5625 105.625 75.972656 105.507812 C 75.386719 105.390625 74.804688 105.246094 74.230469 105.070312 C 73.65625 104.894531 73.09375 104.695312 72.539062 104.464844 C 71.984375 104.234375 71.441406 103.976562 70.914062 103.695312 C 70.382812 103.414062 69.871094 103.105469 69.371094 102.769531 C 68.871094 102.4375 68.390625 102.082031 67.925781 101.699219 C 67.460938 101.320312 67.019531 100.917969 66.59375 100.492188 C 66.171875 100.070312 65.769531 99.625 65.386719 99.160156 C 65.007812 98.695312 64.648438 98.214844 64.316406 97.71875 C 63.984375 97.21875 63.675781 96.703125 63.390625 96.175781 C 63.109375 95.644531 62.851562 95.105469 62.625 94.550781 C 62.394531 93.996094 62.191406 93.429688 62.015625 92.855469 C 61.84375 92.28125 61.699219 91.703125 61.582031 91.113281 C 61.464844 90.523438 61.375 89.933594 61.316406 89.335938 C 61.257812 88.738281 61.230469 88.140625 61.230469 87.539062 C 61.230469 86.9375 61.257812 86.339844 61.316406 85.742188 C 61.375 85.144531 61.464844 84.554688 61.582031 83.964844 C 61.699219 83.375 61.84375 82.796875 62.015625 82.222656 C 62.191406 81.648438 62.394531 81.082031 62.625 80.527344 C 62.851562 79.972656 63.109375 79.433594 63.390625 78.902344 C 63.675781 78.375 63.984375 77.859375 64.316406 77.359375 C 64.648438 76.863281 65.007812 76.378906 65.386719 75.917969 C 65.769531 75.453125 66.171875 75.007812 66.59375 74.585938 C 67.019531 74.160156 67.460938 73.757812 67.925781 73.378906 C 68.390625 72.996094 68.871094 72.640625 69.371094 72.304688 C 69.871094 71.972656 70.382812 71.664062 70.914062 71.382812 C 71.441406 71.097656 71.984375 70.84375 72.539062 70.613281 C 73.09375 70.382812 73.65625 70.183594 74.230469 70.007812 C 74.804688 69.832031 75.386719 69.6875 75.972656 69.570312 C 76.5625 69.453125 77.15625 69.367188 77.753906 69.308594 C 78.351562 69.25 78.949219 69.21875 79.546875 69.21875 C 80.148438 69.21875 80.746094 69.25 81.34375 69.308594 C 81.941406 69.367188 82.535156 69.453125 83.121094 69.570312 C 83.710938 69.6875 84.292969 69.832031 84.867188 70.007812 C 85.441406 70.183594 86.003906 70.382812 86.558594 70.613281 C 87.113281 70.84375 87.65625 71.097656 88.183594 71.382812 C 88.714844 71.664062 89.226562 71.972656 89.726562 72.304688 C 90.226562 72.640625 90.707031 72.996094 91.171875 73.378906 C 91.632812 73.757812 92.078125 74.160156 92.503906 74.585938 C 92.925781 75.007812 93.328125 75.453125 93.710938 75.917969 C 94.089844 76.378906 94.449219 76.863281 94.78125 77.359375 C 95.113281 77.859375 95.421875 78.375 95.707031 78.902344 C 95.988281 79.433594 96.246094 79.972656 96.472656 80.527344 C 96.703125 81.082031 96.90625 81.648438 97.078125 82.222656 C 97.253906 82.796875 97.398438 83.375 97.515625 83.964844 C 97.632812 84.554688 97.722656 85.144531 97.78125 85.742188 C 97.839844 86.339844 97.867188 86.9375 97.867188 87.539062 Z M 97.867188 87.539062 "/>
</g>
</svg>
