<?xml version="1.0" encoding="UTF-8"?>
<svg xmlns="http://www.w3.org/2000/svg" xmlns:xlink="http://www.w3.org/1999/xlink" width="450pt" height="449.999984pt" viewBox="0 0 450 449.999984" version="1.2">
<defs>
<clipPath id="clip1">
  <path d="M 15 8.453125 L 402 8.453125 L 402 441.203125 L 15 441.203125 Z M 15 8.453125 "/>
</clipPath>
</defs>
<g id="surface1">
<rect x="0" y="0" width="450" height="449.999984" style="fill:rgb(100%,100%,100%);fill-opacity:1;stroke:none;"/>
<rect x="0" y="0" width="450" height="449.999984" style="fill:rgb(100%,100%,100%);fill-opacity:1;stroke:none;"/>
<g clip-path="url(#clip1)" clip-rule="nonzero">
<path style=" stroke:none;fill-rule:nonzero;fill:rgb(94.119263%,17.649841%,22.749329%);fill-opacity:1;" d="M 373.484375 8.453125 L 328.179688 8.453125 C 317.363281 8.453125 309.925781 15.890625 309.925781 26.710938 L 309.925781 44.96875 C 309.925781 55.785156 317.363281 62.546875 328.179688 62.546875 C 339 62.546875 346.4375 55.109375 346.4375 44.292969 L 364.695312 44.292969 L 364.695312 165.324219 C 364.695312 208.601562 330.210938 243.085938 286.933594 243.085938 L 279.496094 243.085938 C 236.222656 243.085938 201.738281 208.601562 201.738281 165.324219 L 201.738281 44.96875 L 219.992188 44.96875 C 219.316406 55.785156 226.753906 62.546875 237.574219 62.546875 C 248.394531 62.546875 255.832031 55.785156 255.832031 44.96875 L 255.832031 26.710938 C 255.832031 15.890625 248.394531 8.453125 237.574219 8.453125 L 192.269531 8.453125 C 178.070312 8.453125 165.222656 21.300781 165.222656 35.5 L 165.222656 166.003906 C 165.222656 227.535156 213.90625 276.21875 274.085938 280.273438 L 274.085938 368.851562 C 274.085938 390.492188 257.859375 408.746094 237.574219 408.746094 L 132.765625 408.746094 C 111.128906 406.71875 92.875 388.460938 92.875 366.824219 L 92.875 308.675781 C 117.890625 301.238281 138.175781 277.570312 138.175781 249.171875 C 138.175781 214.6875 111.128906 187.640625 76.644531 187.640625 C 42.160156 187.640625 15.113281 214.6875 15.113281 249.171875 C 15.113281 276.21875 33.371094 299.882812 58.386719 307.320312 L 58.386719 365.472656 C 58.386719 406.71875 92.875 441.203125 134.796875 441.203125 L 238.25 441.203125 C 278.144531 441.203125 310.601562 406.71875 310.601562 365.472656 L 310.601562 274.867188 C 363.34375 264.046875 401.207031 218.742188 401.207031 162.621094 L 401.207031 35.5 C 400.53125 21.300781 387.683594 8.453125 373.484375 8.453125 Z M 74.617188 225.503906 C 88.816406 225.503906 99.636719 236.324219 99.636719 250.523438 C 99.636719 264.722656 88.816406 275.542969 74.617188 275.542969 C 60.417969 275.542969 49.597656 265.398438 49.597656 251.199219 C 49.597656 237 61.769531 225.503906 74.617188 225.503906 Z M 74.617188 225.503906 "/>
</g>
</g>
</svg>
